<svg width="18" height="19" viewBox="0 0 18 19" fill="none" xmlns="http://www.w3.org/2000/svg">
<path d="M17.4702 8.64808H1.28789L7.2102 0.863081C7.24588 0.816134 7.27418 0.760399 7.29349 0.699059C7.3128 0.637719 7.32274 0.571975 7.32274 0.505581C7.32274 0.439187 7.3128 0.373444 7.29349 0.312104C7.27418 0.250764 7.24588 0.195029 7.2102 0.148081C7.17452 0.101134 7.13216 0.0638929 7.08554 0.038485C7.03892 0.0130772 6.98895 0 6.9385 0C6.88804 0 6.83807 0.0130772 6.79145 0.038485C6.74483 0.0638929 6.70248 0.101134 6.6668 0.148081L0.102295 8.79308C0.0843199 8.81651 0.068388 8.8425 0.0547948 8.87058C0.0484033 8.88251 0.0426879 8.89504 0.0376948 8.90808L0.0186948 8.95808L0.00729477 9.00808C0.00620248 9.02221 0.00620248 9.03645 0.00729477 9.05058C-0.00243159 9.11495 -0.00243159 9.18121 0.00729477 9.24558C0.00620248 9.25971 0.00620248 9.27395 0.00729477 9.28808L0.0186948 9.33808L0.0376948 9.38808C0.0426879 9.40111 0.0484033 9.41365 0.0547948 9.42558C0.068388 9.45366 0.0843199 9.47965 0.102295 9.50308L6.6668 18.1481C6.70219 18.1957 6.74445 18.2335 6.79111 18.2594C6.83776 18.2852 6.88788 18.2985 6.9385 18.2985C6.98912 18.2985 7.03923 18.2852 7.08588 18.2594C7.13254 18.2335 7.17481 18.1957 7.2102 18.1481C7.24553 18.1016 7.27356 18.0465 7.29268 17.9858C7.3118 17.9251 7.32164 17.86 7.32164 17.7943C7.32164 17.7286 7.3118 17.6636 7.29268 17.6029C7.27356 17.5422 7.24553 17.487 7.2102 17.4406L1.28789 9.64808H17.4702C17.571 9.64808 17.6676 9.5954 17.7389 9.50163C17.8102 9.40787 17.8502 9.28069 17.8502 9.14808C17.8502 9.01547 17.8102 8.88829 17.7389 8.79453C17.6676 8.70076 17.571 8.64808 17.4702 8.64808Z" fill="black"/>
</svg>
