<svg width="18" height="19" viewBox="0 0 18 19" fill="none" xmlns="http://www.w3.org/2000/svg">
<path d="M0.380025 9.65026L16.5623 9.65026L10.64 17.4353C10.6043 17.4822 10.576 17.5379 10.5567 17.5993C10.5374 17.6606 10.5275 17.7264 10.5275 17.7928C10.5275 17.8592 10.5374 17.9249 10.5567 17.9862C10.576 18.0476 10.6043 18.1033 10.64 18.1503C10.6757 18.1972 10.7181 18.2344 10.7647 18.2599C10.8113 18.2853 10.8613 18.2983 10.9117 18.2983C10.9622 18.2983 11.0121 18.2853 11.0588 18.2599C11.1054 18.2344 11.1477 18.1972 11.1834 18.1503L17.7479 9.50526C17.7659 9.48183 17.7818 9.45584 17.7954 9.42776C17.8018 9.41583 17.8075 9.40329 17.8125 9.39026L17.8315 9.34026L17.8429 9.29026C17.844 9.27613 17.844 9.26189 17.8429 9.24776C17.8527 9.18339 17.8527 9.11713 17.8429 9.05276C17.844 9.03863 17.844 9.02439 17.8429 9.01026L17.8315 8.96026L17.8125 8.91026C17.8075 8.89722 17.8018 8.88469 17.7954 8.87276C17.7818 8.84468 17.7659 8.81869 17.7479 8.79526L11.1834 0.150259C11.148 0.102636 11.1058 0.0647972 11.0591 0.0389633C11.0125 0.0131295 10.9623 -0.000179291 10.9117 -0.000179291C10.8611 -0.000179291 10.811 0.0131295 10.7643 0.0389633C10.7177 0.0647972 10.6754 0.102636 10.64 0.150259C10.6047 0.196696 10.5767 0.251839 10.5575 0.312538C10.5384 0.373237 10.5286 0.438302 10.5286 0.504009C10.5286 0.569717 10.5384 0.634779 10.5575 0.695478C10.5767 0.756177 10.6047 0.811323 10.64 0.857759L16.5623 8.65026L0.380025 8.65026C0.279243 8.65026 0.182588 8.70294 0.111324 8.79671C0.0400603 8.89047 2.49432e-05 9.01765 2.49432e-05 9.15026C2.49432e-05 9.28287 0.0400603 9.41004 0.111324 9.50381C0.182588 9.59758 0.279243 9.65026 0.380025 9.65026Z" fill="black"/>
</svg>
