<svg width="18" height="19" fill="none" xmlns="http://www.w3.org/2000/svg"><path d="M17.47 8.648H1.288L7.21.863A.538.538 0 007.293.7a.647.647 0 000-.387.538.538 0 00-.083-.164.397.397 0 00-.124-.11.306.306 0 00-.295 0 .397.397 0 00-.124.11L.102 8.793a.448.448 0 00-.064.115l-.02.05-.01.05a.276.276 0 000 .043.655.655 0 000 .195.276.276 0 000 .042l.01.05.02.05a.448.448 0 00.065.115l6.564 8.645a.396.396 0 00.124.111c.047.026.097.04.147.04.051 0 .101-.014.148-.04a.396.396 0 00.124-.11.533.533 0 00.083-.163.64.64 0 000-.383.532.532 0 00-.083-.162L1.288 9.648H17.47c.101 0 .198-.053.269-.146a.59.59 0 00.111-.354.59.59 0 00-.111-.353.341.341 0 00-.269-.147z" fill="#000"/></svg>